<?xml version="1.0" standalone="no"?><!DOCTYPE svg PUBLIC "-//W3C//DTD SVG 1.1//EN" "http://www.w3.org/Graphics/SVG/1.1/DTD/svg11.dtd"><svg class="icon" width="200px" height="200.00px" viewBox="0 0 1024 1024" version="1.1" xmlns="http://www.w3.org/2000/svg"><path d="M892.032 210.773333L541.226667 7.936a57.941333 57.941333 0 0 0-58.453334 0l-350.805333 203.52a58.752 58.752 0 0 0-29.269333 50.474667v406.442666a58.752 58.752 0 0 0 29.269333 50.944l350.805333 203.093334 2.645334 1.493333L658.133333 1024l-0.469333-87.936 0.341333-48.853333 0.128 0.853333v-16.426667a29.44 29.44 0 0 1 12.629334-23.893333l11.264-6.442667 5.418666-2.986666h-0.341333l204.928-118.613334a58.88 58.88 0 0 0 29.269333-50.986666V261.76a58.88 58.88 0 0 0-29.269333-50.986667m-420.394667 413.354667a60.885333 60.885333 0 0 1-17.066666 59.050667 60.117333 60.117333 0 0 1-84.053334 0 60.586667 60.586667 0 0 1 0-88.021334 60.117333 60.117333 0 0 1 87.125334 3.242667l141.994666-81.749333 29.312 16.469333z m246.186667-102.997333a60.117333 60.117333 0 0 1-84.053333 0 60.842667 60.842667 0 0 1-15.786667-63.061334l-0.554667 0.341334L457.386667 365.653333l-2.432 2.432a60.117333 60.117333 0 0 1-84.053334 0 60.586667 60.586667 0 0 1 0-88.021333 60.117333 60.117333 0 0 1 84.138667 0c16.810667 16.085333 22.357333 39.168 16.64 60.032l161.322667 93.866667 0.810666-0.810667a60.117333 60.117333 0 0 1 84.138667 0 60.885333 60.885333 0 0 1 0 87.936z" /></svg>